<mxfile host="app.diagrams.net" agent="Mozilla/5.0 (Windows NT 10.0; Win64; x64; rv:140.0) Gecko/20100101 Firefox/140.0" version="28.0.5">
  <diagram name="Page-1" id="7VD5256l8NoGiC1kWZaS">
    <mxGraphModel dx="2572" dy="966" grid="1" gridSize="10" guides="1" tooltips="1" connect="1" arrows="1" fold="1" page="1" pageScale="1" pageWidth="850" pageHeight="1100" math="0" shadow="0">
      <root>
        <mxCell id="0" />
        <mxCell id="1" parent="0" />
        <mxCell id="FfeQr3sFxZmY81Ny0Sa9-98" value="Component Name" style="swimlane;" vertex="1" parent="1">
          <mxGeometry x="20" y="90" width="490" height="490" as="geometry">
            <mxRectangle x="20" y="90" width="160" height="30" as="alternateBounds" />
          </mxGeometry>
        </mxCell>
        <mxCell id="FfeQr3sFxZmY81Ny0Sa9-163" value="" style="shape=image;html=1;verticalLabelPosition=bottom;verticalAlign=top;imageAspect=0;image=img/clipart/Gear_128x128.png" vertex="1" parent="FfeQr3sFxZmY81Ny0Sa9-98">
          <mxGeometry x="300" y="50" width="50" height="60" as="geometry" />
        </mxCell>
        <UserObject label="Component Number" link="#" linkTarget="_blank" id="FfeQr3sFxZmY81Ny0Sa9-164">
          <mxCell style="text;html=1;strokeColor=none;fillColor=none;whiteSpace=wrap;align=center;verticalAlign=middle;fontColor=#0000EE;fontStyle=4;" vertex="1" parent="FfeQr3sFxZmY81Ny0Sa9-98">
            <mxGeometry y="30" width="130" height="40" as="geometry" />
          </mxCell>
        </UserObject>
        <mxCell id="FfeQr3sFxZmY81Ny0Sa9-165" value="" style="group" vertex="1" connectable="0" parent="FfeQr3sFxZmY81Ny0Sa9-98">
          <mxGeometry x="285" y="200" width="240" height="270" as="geometry" />
        </mxCell>
        <mxCell id="FfeQr3sFxZmY81Ny0Sa9-15" value="Interface" style="shape=table;startSize=30;container=1;collapsible=0;childLayout=tableLayout;fixedRows=1;rowLines=0;fontStyle=0;strokeColor=default;fontSize=16;" vertex="1" parent="FfeQr3sFxZmY81Ny0Sa9-165">
          <mxGeometry width="180" height="270" as="geometry" />
        </mxCell>
        <mxCell id="FfeQr3sFxZmY81Ny0Sa9-16" value="" style="shape=tableRow;horizontal=0;startSize=0;swimlaneHead=0;swimlaneBody=0;top=0;left=0;bottom=0;right=0;collapsible=0;dropTarget=0;fillColor=none;points=[[0,0.5],[1,0.5]];portConstraint=eastwest;strokeColor=inherit;fontSize=16;" vertex="1" parent="FfeQr3sFxZmY81Ny0Sa9-15">
          <mxGeometry y="30" width="180" height="30" as="geometry" />
        </mxCell>
        <mxCell id="FfeQr3sFxZmY81Ny0Sa9-18" value="Value 1" style="shape=partialRectangle;html=1;whiteSpace=wrap;connectable=0;fillColor=none;top=0;left=0;bottom=0;right=0;align=left;spacingLeft=6;overflow=hidden;strokeColor=inherit;fontSize=16;" vertex="1" parent="FfeQr3sFxZmY81Ny0Sa9-16">
          <mxGeometry width="140" height="30" as="geometry">
            <mxRectangle width="140" height="30" as="alternateBounds" />
          </mxGeometry>
        </mxCell>
        <mxCell id="FfeQr3sFxZmY81Ny0Sa9-38" value="1" style="shape=partialRectangle;html=1;whiteSpace=wrap;connectable=0;fillColor=none;top=0;left=0;bottom=0;right=0;align=center;spacingLeft=6;overflow=hidden;strokeColor=inherit;fontSize=16;" vertex="1" parent="FfeQr3sFxZmY81Ny0Sa9-16">
          <mxGeometry x="140" width="40" height="30" as="geometry">
            <mxRectangle width="40" height="30" as="alternateBounds" />
          </mxGeometry>
        </mxCell>
        <mxCell id="FfeQr3sFxZmY81Ny0Sa9-19" value="" style="shape=tableRow;horizontal=0;startSize=0;swimlaneHead=0;swimlaneBody=0;top=0;left=0;bottom=0;right=0;collapsible=0;dropTarget=0;fillColor=none;points=[[0,0.5],[1,0.5]];portConstraint=eastwest;strokeColor=inherit;fontSize=16;" vertex="1" parent="FfeQr3sFxZmY81Ny0Sa9-15">
          <mxGeometry y="60" width="180" height="30" as="geometry" />
        </mxCell>
        <mxCell id="FfeQr3sFxZmY81Ny0Sa9-21" value="Value 2" style="shape=partialRectangle;html=1;whiteSpace=wrap;connectable=0;fillColor=none;top=0;left=0;bottom=0;right=0;align=left;spacingLeft=6;overflow=hidden;strokeColor=inherit;fontSize=16;" vertex="1" parent="FfeQr3sFxZmY81Ny0Sa9-19">
          <mxGeometry width="140" height="30" as="geometry">
            <mxRectangle width="140" height="30" as="alternateBounds" />
          </mxGeometry>
        </mxCell>
        <mxCell id="FfeQr3sFxZmY81Ny0Sa9-39" value="2" style="shape=partialRectangle;html=1;whiteSpace=wrap;connectable=0;fillColor=none;top=0;left=0;bottom=0;right=0;align=center;spacingLeft=6;overflow=hidden;strokeColor=inherit;fontSize=16;" vertex="1" parent="FfeQr3sFxZmY81Ny0Sa9-19">
          <mxGeometry x="140" width="40" height="30" as="geometry">
            <mxRectangle width="40" height="30" as="alternateBounds" />
          </mxGeometry>
        </mxCell>
        <mxCell id="FfeQr3sFxZmY81Ny0Sa9-22" value="" style="shape=tableRow;horizontal=0;startSize=0;swimlaneHead=0;swimlaneBody=0;top=0;left=0;bottom=0;right=0;collapsible=0;dropTarget=0;fillColor=none;points=[[0,0.5],[1,0.5]];portConstraint=eastwest;strokeColor=inherit;fontSize=16;" vertex="1" parent="FfeQr3sFxZmY81Ny0Sa9-15">
          <mxGeometry y="90" width="180" height="30" as="geometry" />
        </mxCell>
        <mxCell id="FfeQr3sFxZmY81Ny0Sa9-24" value="Value 3" style="shape=partialRectangle;html=1;whiteSpace=wrap;connectable=0;fillColor=none;top=0;left=0;bottom=0;right=0;align=left;spacingLeft=6;overflow=hidden;strokeColor=inherit;fontSize=16;" vertex="1" parent="FfeQr3sFxZmY81Ny0Sa9-22">
          <mxGeometry width="140" height="30" as="geometry">
            <mxRectangle width="140" height="30" as="alternateBounds" />
          </mxGeometry>
        </mxCell>
        <mxCell id="FfeQr3sFxZmY81Ny0Sa9-40" value="3" style="shape=partialRectangle;html=1;whiteSpace=wrap;connectable=0;fillColor=none;top=0;left=0;bottom=0;right=0;align=center;spacingLeft=6;overflow=hidden;strokeColor=inherit;fontSize=16;" vertex="1" parent="FfeQr3sFxZmY81Ny0Sa9-22">
          <mxGeometry x="140" width="40" height="30" as="geometry">
            <mxRectangle width="40" height="30" as="alternateBounds" />
          </mxGeometry>
        </mxCell>
        <mxCell id="FfeQr3sFxZmY81Ny0Sa9-65" style="shape=tableRow;horizontal=0;startSize=0;swimlaneHead=0;swimlaneBody=0;top=0;left=0;bottom=0;right=0;collapsible=0;dropTarget=0;fillColor=none;points=[[0,0.5],[1,0.5]];portConstraint=eastwest;strokeColor=inherit;fontSize=16;" vertex="1" parent="FfeQr3sFxZmY81Ny0Sa9-15">
          <mxGeometry y="120" width="180" height="30" as="geometry" />
        </mxCell>
        <mxCell id="FfeQr3sFxZmY81Ny0Sa9-66" value="Value 4" style="shape=partialRectangle;html=1;whiteSpace=wrap;connectable=0;fillColor=none;top=0;left=0;bottom=0;right=0;align=left;spacingLeft=6;overflow=hidden;strokeColor=inherit;fontSize=16;" vertex="1" parent="FfeQr3sFxZmY81Ny0Sa9-65">
          <mxGeometry width="140" height="30" as="geometry">
            <mxRectangle width="140" height="30" as="alternateBounds" />
          </mxGeometry>
        </mxCell>
        <mxCell id="FfeQr3sFxZmY81Ny0Sa9-67" value="4" style="shape=partialRectangle;html=1;whiteSpace=wrap;connectable=0;fillColor=none;top=0;left=0;bottom=0;right=0;align=center;spacingLeft=6;overflow=hidden;strokeColor=inherit;fontSize=16;" vertex="1" parent="FfeQr3sFxZmY81Ny0Sa9-65">
          <mxGeometry x="140" width="40" height="30" as="geometry">
            <mxRectangle width="40" height="30" as="alternateBounds" />
          </mxGeometry>
        </mxCell>
        <mxCell id="FfeQr3sFxZmY81Ny0Sa9-62" style="shape=tableRow;horizontal=0;startSize=0;swimlaneHead=0;swimlaneBody=0;top=0;left=0;bottom=0;right=0;collapsible=0;dropTarget=0;fillColor=none;points=[[0,0.5],[1,0.5]];portConstraint=eastwest;strokeColor=inherit;fontSize=16;" vertex="1" parent="FfeQr3sFxZmY81Ny0Sa9-15">
          <mxGeometry y="150" width="180" height="30" as="geometry" />
        </mxCell>
        <mxCell id="FfeQr3sFxZmY81Ny0Sa9-63" value="Value 5" style="shape=partialRectangle;html=1;whiteSpace=wrap;connectable=0;fillColor=none;top=0;left=0;bottom=0;right=0;align=left;spacingLeft=6;overflow=hidden;strokeColor=inherit;fontSize=16;" vertex="1" parent="FfeQr3sFxZmY81Ny0Sa9-62">
          <mxGeometry width="140" height="30" as="geometry">
            <mxRectangle width="140" height="30" as="alternateBounds" />
          </mxGeometry>
        </mxCell>
        <mxCell id="FfeQr3sFxZmY81Ny0Sa9-64" value="5" style="shape=partialRectangle;html=1;whiteSpace=wrap;connectable=0;fillColor=none;top=0;left=0;bottom=0;right=0;align=center;spacingLeft=6;overflow=hidden;strokeColor=inherit;fontSize=16;" vertex="1" parent="FfeQr3sFxZmY81Ny0Sa9-62">
          <mxGeometry x="140" width="40" height="30" as="geometry">
            <mxRectangle width="40" height="30" as="alternateBounds" />
          </mxGeometry>
        </mxCell>
        <mxCell id="FfeQr3sFxZmY81Ny0Sa9-59" style="shape=tableRow;horizontal=0;startSize=0;swimlaneHead=0;swimlaneBody=0;top=0;left=0;bottom=0;right=0;collapsible=0;dropTarget=0;fillColor=none;points=[[0,0.5],[1,0.5]];portConstraint=eastwest;strokeColor=inherit;fontSize=16;" vertex="1" parent="FfeQr3sFxZmY81Ny0Sa9-15">
          <mxGeometry y="180" width="180" height="30" as="geometry" />
        </mxCell>
        <mxCell id="FfeQr3sFxZmY81Ny0Sa9-60" value="Value 6" style="shape=partialRectangle;html=1;whiteSpace=wrap;connectable=0;fillColor=none;top=0;left=0;bottom=0;right=0;align=left;spacingLeft=6;overflow=hidden;strokeColor=inherit;fontSize=16;" vertex="1" parent="FfeQr3sFxZmY81Ny0Sa9-59">
          <mxGeometry width="140" height="30" as="geometry">
            <mxRectangle width="140" height="30" as="alternateBounds" />
          </mxGeometry>
        </mxCell>
        <mxCell id="FfeQr3sFxZmY81Ny0Sa9-61" value="6" style="shape=partialRectangle;html=1;whiteSpace=wrap;connectable=0;fillColor=none;top=0;left=0;bottom=0;right=0;align=center;spacingLeft=6;overflow=hidden;strokeColor=inherit;fontSize=16;" vertex="1" parent="FfeQr3sFxZmY81Ny0Sa9-59">
          <mxGeometry x="140" width="40" height="30" as="geometry">
            <mxRectangle width="40" height="30" as="alternateBounds" />
          </mxGeometry>
        </mxCell>
        <mxCell id="FfeQr3sFxZmY81Ny0Sa9-56" style="shape=tableRow;horizontal=0;startSize=0;swimlaneHead=0;swimlaneBody=0;top=0;left=0;bottom=0;right=0;collapsible=0;dropTarget=0;fillColor=none;points=[[0,0.5],[1,0.5]];portConstraint=eastwest;strokeColor=inherit;fontSize=16;" vertex="1" parent="FfeQr3sFxZmY81Ny0Sa9-15">
          <mxGeometry y="210" width="180" height="30" as="geometry" />
        </mxCell>
        <mxCell id="FfeQr3sFxZmY81Ny0Sa9-57" value="Value 7" style="shape=partialRectangle;html=1;whiteSpace=wrap;connectable=0;fillColor=none;top=0;left=0;bottom=0;right=0;align=left;spacingLeft=6;overflow=hidden;strokeColor=inherit;fontSize=16;" vertex="1" parent="FfeQr3sFxZmY81Ny0Sa9-56">
          <mxGeometry width="140" height="30" as="geometry">
            <mxRectangle width="140" height="30" as="alternateBounds" />
          </mxGeometry>
        </mxCell>
        <mxCell id="FfeQr3sFxZmY81Ny0Sa9-58" value="7" style="shape=partialRectangle;html=1;whiteSpace=wrap;connectable=0;fillColor=none;top=0;left=0;bottom=0;right=0;align=center;spacingLeft=6;overflow=hidden;strokeColor=inherit;fontSize=16;" vertex="1" parent="FfeQr3sFxZmY81Ny0Sa9-56">
          <mxGeometry x="140" width="40" height="30" as="geometry">
            <mxRectangle width="40" height="30" as="alternateBounds" />
          </mxGeometry>
        </mxCell>
        <mxCell id="FfeQr3sFxZmY81Ny0Sa9-53" style="shape=tableRow;horizontal=0;startSize=0;swimlaneHead=0;swimlaneBody=0;top=0;left=0;bottom=0;right=0;collapsible=0;dropTarget=0;fillColor=none;points=[[0,0.5],[1,0.5]];portConstraint=eastwest;strokeColor=inherit;fontSize=16;" vertex="1" parent="FfeQr3sFxZmY81Ny0Sa9-15">
          <mxGeometry y="240" width="180" height="30" as="geometry" />
        </mxCell>
        <mxCell id="FfeQr3sFxZmY81Ny0Sa9-54" value="Value 8" style="shape=partialRectangle;html=1;whiteSpace=wrap;connectable=0;fillColor=none;top=0;left=0;bottom=0;right=0;align=left;spacingLeft=6;overflow=hidden;strokeColor=inherit;fontSize=16;" vertex="1" parent="FfeQr3sFxZmY81Ny0Sa9-53">
          <mxGeometry width="140" height="30" as="geometry">
            <mxRectangle width="140" height="30" as="alternateBounds" />
          </mxGeometry>
        </mxCell>
        <mxCell id="FfeQr3sFxZmY81Ny0Sa9-55" value="8" style="shape=partialRectangle;html=1;whiteSpace=wrap;connectable=0;fillColor=none;top=0;left=0;bottom=0;right=0;align=center;spacingLeft=6;overflow=hidden;strokeColor=inherit;fontSize=16;" vertex="1" parent="FfeQr3sFxZmY81Ny0Sa9-53">
          <mxGeometry x="140" width="40" height="30" as="geometry">
            <mxRectangle width="40" height="30" as="alternateBounds" />
          </mxGeometry>
        </mxCell>
        <mxCell id="FfeQr3sFxZmY81Ny0Sa9-47" value="" style="edgeStyle=elbowEdgeStyle;elbow=horizontal;endArrow=halfCircle;html=1;curved=0;rounded=0;endSize=8;startSize=8;exitX=1;exitY=0.5;exitDx=0;exitDy=0;endFill=0;startArrow=halfCircle;startFill=0;" edge="1" parent="FfeQr3sFxZmY81Ny0Sa9-165" source="FfeQr3sFxZmY81Ny0Sa9-16">
          <mxGeometry width="50" height="50" relative="1" as="geometry">
            <mxPoint x="200" y="230" as="sourcePoint" />
            <mxPoint x="240" y="45" as="targetPoint" />
          </mxGeometry>
        </mxCell>
        <mxCell id="FfeQr3sFxZmY81Ny0Sa9-48" value="" style="edgeStyle=elbowEdgeStyle;elbow=horizontal;endArrow=halfCircle;html=1;curved=0;rounded=0;endSize=8;startSize=8;exitX=1;exitY=0.5;exitDx=0;exitDy=0;endFill=0;startArrow=halfCircle;startFill=0;" edge="1" parent="FfeQr3sFxZmY81Ny0Sa9-165" source="FfeQr3sFxZmY81Ny0Sa9-19">
          <mxGeometry width="50" height="50" relative="1" as="geometry">
            <mxPoint x="220" y="90" as="sourcePoint" />
            <mxPoint x="240" y="75" as="targetPoint" />
          </mxGeometry>
        </mxCell>
        <mxCell id="FfeQr3sFxZmY81Ny0Sa9-49" value="" style="edgeStyle=elbowEdgeStyle;elbow=horizontal;endArrow=halfCircle;html=1;curved=0;rounded=0;endSize=8;startSize=8;exitX=1;exitY=0.5;exitDx=0;exitDy=0;endFill=0;startArrow=halfCircle;startFill=0;" edge="1" parent="FfeQr3sFxZmY81Ny0Sa9-165" source="FfeQr3sFxZmY81Ny0Sa9-22">
          <mxGeometry width="50" height="50" relative="1" as="geometry">
            <mxPoint x="200" y="90" as="sourcePoint" />
            <mxPoint x="240" y="105" as="targetPoint" />
          </mxGeometry>
        </mxCell>
        <mxCell id="FfeQr3sFxZmY81Ny0Sa9-84" value="" style="edgeStyle=elbowEdgeStyle;elbow=horizontal;endArrow=halfCircle;html=1;curved=0;rounded=0;endSize=8;startSize=8;exitX=1;exitY=0.5;exitDx=0;exitDy=0;endFill=0;startArrow=halfCircle;startFill=0;" edge="1" parent="FfeQr3sFxZmY81Ny0Sa9-165" source="FfeQr3sFxZmY81Ny0Sa9-65">
          <mxGeometry width="50" height="50" relative="1" as="geometry">
            <mxPoint x="190" y="120" as="sourcePoint" />
            <mxPoint x="240" y="135" as="targetPoint" />
          </mxGeometry>
        </mxCell>
        <mxCell id="FfeQr3sFxZmY81Ny0Sa9-85" value="" style="edgeStyle=elbowEdgeStyle;elbow=horizontal;endArrow=halfCircle;html=1;curved=0;rounded=0;endSize=8;startSize=8;exitX=1;exitY=0.5;exitDx=0;exitDy=0;endFill=0;startArrow=halfCircle;startFill=0;" edge="1" parent="FfeQr3sFxZmY81Ny0Sa9-165" source="FfeQr3sFxZmY81Ny0Sa9-62">
          <mxGeometry width="50" height="50" relative="1" as="geometry">
            <mxPoint x="190" y="140" as="sourcePoint" />
            <mxPoint x="240" y="165" as="targetPoint" />
          </mxGeometry>
        </mxCell>
        <mxCell id="FfeQr3sFxZmY81Ny0Sa9-86" value="" style="edgeStyle=elbowEdgeStyle;elbow=horizontal;endArrow=halfCircle;html=1;curved=0;rounded=0;endSize=8;startSize=8;exitX=1;exitY=0.5;exitDx=0;exitDy=0;endFill=0;startArrow=halfCircle;startFill=0;" edge="1" parent="FfeQr3sFxZmY81Ny0Sa9-165" source="FfeQr3sFxZmY81Ny0Sa9-59">
          <mxGeometry width="50" height="50" relative="1" as="geometry">
            <mxPoint x="190" y="170" as="sourcePoint" />
            <mxPoint x="240" y="195" as="targetPoint" />
          </mxGeometry>
        </mxCell>
        <mxCell id="FfeQr3sFxZmY81Ny0Sa9-87" value="" style="edgeStyle=elbowEdgeStyle;elbow=horizontal;endArrow=halfCircle;html=1;curved=0;rounded=0;endSize=8;startSize=8;exitX=1;exitY=0.5;exitDx=0;exitDy=0;endFill=0;startArrow=halfCircle;startFill=0;" edge="1" parent="FfeQr3sFxZmY81Ny0Sa9-165" source="FfeQr3sFxZmY81Ny0Sa9-56">
          <mxGeometry width="50" height="50" relative="1" as="geometry">
            <mxPoint x="190" y="190" as="sourcePoint" />
            <mxPoint x="240" y="225" as="targetPoint" />
          </mxGeometry>
        </mxCell>
        <mxCell id="FfeQr3sFxZmY81Ny0Sa9-88" value="" style="edgeStyle=elbowEdgeStyle;elbow=horizontal;endArrow=halfCircle;html=1;curved=0;rounded=0;endSize=8;startSize=8;exitX=1;exitY=0.5;exitDx=0;exitDy=0;endFill=0;startArrow=halfCircle;startFill=0;" edge="1" parent="FfeQr3sFxZmY81Ny0Sa9-165" source="FfeQr3sFxZmY81Ny0Sa9-53">
          <mxGeometry width="50" height="50" relative="1" as="geometry">
            <mxPoint x="200" y="230" as="sourcePoint" />
            <mxPoint x="240" y="255" as="targetPoint" />
          </mxGeometry>
        </mxCell>
        <mxCell id="FfeQr3sFxZmY81Ny0Sa9-99" value="" style="group" vertex="1" connectable="0" parent="FfeQr3sFxZmY81Ny0Sa9-98">
          <mxGeometry x="-50" y="200" width="250" height="270" as="geometry" />
        </mxCell>
        <mxCell id="FfeQr3sFxZmY81Ny0Sa9-5" value="Interface" style="shape=table;startSize=30;container=1;collapsible=0;childLayout=tableLayout;fixedRows=1;rowLines=0;fontStyle=0;strokeColor=default;fontSize=16;" vertex="1" parent="FfeQr3sFxZmY81Ny0Sa9-99">
          <mxGeometry x="70" width="180" height="270" as="geometry" />
        </mxCell>
        <mxCell id="FfeQr3sFxZmY81Ny0Sa9-6" value="" style="shape=tableRow;horizontal=0;startSize=0;swimlaneHead=0;swimlaneBody=0;top=0;left=0;bottom=0;right=0;collapsible=0;dropTarget=0;fillColor=none;points=[[0,0.5],[1,0.5]];portConstraint=eastwest;strokeColor=inherit;fontSize=16;" vertex="1" parent="FfeQr3sFxZmY81Ny0Sa9-5">
          <mxGeometry y="30" width="180" height="30" as="geometry" />
        </mxCell>
        <mxCell id="FfeQr3sFxZmY81Ny0Sa9-7" value="1" style="shape=partialRectangle;html=1;whiteSpace=wrap;connectable=0;fillColor=none;top=0;left=0;bottom=0;right=0;overflow=hidden;pointerEvents=1;strokeColor=inherit;fontSize=16;" vertex="1" parent="FfeQr3sFxZmY81Ny0Sa9-6">
          <mxGeometry width="40" height="30" as="geometry">
            <mxRectangle width="40" height="30" as="alternateBounds" />
          </mxGeometry>
        </mxCell>
        <mxCell id="FfeQr3sFxZmY81Ny0Sa9-8" value="Value 1" style="shape=partialRectangle;html=1;whiteSpace=wrap;connectable=0;fillColor=none;top=0;left=0;bottom=0;right=0;align=left;spacingLeft=6;overflow=hidden;strokeColor=inherit;fontSize=16;" vertex="1" parent="FfeQr3sFxZmY81Ny0Sa9-6">
          <mxGeometry x="40" width="140" height="30" as="geometry">
            <mxRectangle width="140" height="30" as="alternateBounds" />
          </mxGeometry>
        </mxCell>
        <mxCell id="FfeQr3sFxZmY81Ny0Sa9-9" value="" style="shape=tableRow;horizontal=0;startSize=0;swimlaneHead=0;swimlaneBody=0;top=0;left=0;bottom=0;right=0;collapsible=0;dropTarget=0;fillColor=none;points=[[0,0.5],[1,0.5]];portConstraint=eastwest;strokeColor=inherit;fontSize=16;" vertex="1" parent="FfeQr3sFxZmY81Ny0Sa9-5">
          <mxGeometry y="60" width="180" height="30" as="geometry" />
        </mxCell>
        <mxCell id="FfeQr3sFxZmY81Ny0Sa9-10" value="2" style="shape=partialRectangle;html=1;whiteSpace=wrap;connectable=0;fillColor=none;top=0;left=0;bottom=0;right=0;overflow=hidden;strokeColor=inherit;fontSize=16;" vertex="1" parent="FfeQr3sFxZmY81Ny0Sa9-9">
          <mxGeometry width="40" height="30" as="geometry">
            <mxRectangle width="40" height="30" as="alternateBounds" />
          </mxGeometry>
        </mxCell>
        <mxCell id="FfeQr3sFxZmY81Ny0Sa9-11" value="Value 2" style="shape=partialRectangle;html=1;whiteSpace=wrap;connectable=0;fillColor=none;top=0;left=0;bottom=0;right=0;align=left;spacingLeft=6;overflow=hidden;strokeColor=inherit;fontSize=16;" vertex="1" parent="FfeQr3sFxZmY81Ny0Sa9-9">
          <mxGeometry x="40" width="140" height="30" as="geometry">
            <mxRectangle width="140" height="30" as="alternateBounds" />
          </mxGeometry>
        </mxCell>
        <mxCell id="FfeQr3sFxZmY81Ny0Sa9-12" value="" style="shape=tableRow;horizontal=0;startSize=0;swimlaneHead=0;swimlaneBody=0;top=0;left=0;bottom=0;right=0;collapsible=0;dropTarget=0;fillColor=none;points=[[0,0.5],[1,0.5]];portConstraint=eastwest;strokeColor=inherit;fontSize=16;" vertex="1" parent="FfeQr3sFxZmY81Ny0Sa9-5">
          <mxGeometry y="90" width="180" height="30" as="geometry" />
        </mxCell>
        <mxCell id="FfeQr3sFxZmY81Ny0Sa9-13" value="3" style="shape=partialRectangle;html=1;whiteSpace=wrap;connectable=0;fillColor=none;top=0;left=0;bottom=0;right=0;overflow=hidden;strokeColor=inherit;fontSize=16;" vertex="1" parent="FfeQr3sFxZmY81Ny0Sa9-12">
          <mxGeometry width="40" height="30" as="geometry">
            <mxRectangle width="40" height="30" as="alternateBounds" />
          </mxGeometry>
        </mxCell>
        <mxCell id="FfeQr3sFxZmY81Ny0Sa9-14" value="Value 3" style="shape=partialRectangle;html=1;whiteSpace=wrap;connectable=0;fillColor=none;top=0;left=0;bottom=0;right=0;align=left;spacingLeft=6;overflow=hidden;strokeColor=inherit;fontSize=16;" vertex="1" parent="FfeQr3sFxZmY81Ny0Sa9-12">
          <mxGeometry x="40" width="140" height="30" as="geometry">
            <mxRectangle width="140" height="30" as="alternateBounds" />
          </mxGeometry>
        </mxCell>
        <mxCell id="FfeQr3sFxZmY81Ny0Sa9-80" style="shape=tableRow;horizontal=0;startSize=0;swimlaneHead=0;swimlaneBody=0;top=0;left=0;bottom=0;right=0;collapsible=0;dropTarget=0;fillColor=none;points=[[0,0.5],[1,0.5]];portConstraint=eastwest;strokeColor=inherit;fontSize=16;" vertex="1" parent="FfeQr3sFxZmY81Ny0Sa9-5">
          <mxGeometry y="120" width="180" height="30" as="geometry" />
        </mxCell>
        <mxCell id="FfeQr3sFxZmY81Ny0Sa9-81" value="4" style="shape=partialRectangle;html=1;whiteSpace=wrap;connectable=0;fillColor=none;top=0;left=0;bottom=0;right=0;overflow=hidden;strokeColor=inherit;fontSize=16;" vertex="1" parent="FfeQr3sFxZmY81Ny0Sa9-80">
          <mxGeometry width="40" height="30" as="geometry">
            <mxRectangle width="40" height="30" as="alternateBounds" />
          </mxGeometry>
        </mxCell>
        <mxCell id="FfeQr3sFxZmY81Ny0Sa9-82" value="Value 4" style="shape=partialRectangle;html=1;whiteSpace=wrap;connectable=0;fillColor=none;top=0;left=0;bottom=0;right=0;align=left;spacingLeft=6;overflow=hidden;strokeColor=inherit;fontSize=16;" vertex="1" parent="FfeQr3sFxZmY81Ny0Sa9-80">
          <mxGeometry x="40" width="140" height="30" as="geometry">
            <mxRectangle width="140" height="30" as="alternateBounds" />
          </mxGeometry>
        </mxCell>
        <mxCell id="FfeQr3sFxZmY81Ny0Sa9-77" style="shape=tableRow;horizontal=0;startSize=0;swimlaneHead=0;swimlaneBody=0;top=0;left=0;bottom=0;right=0;collapsible=0;dropTarget=0;fillColor=none;points=[[0,0.5],[1,0.5]];portConstraint=eastwest;strokeColor=inherit;fontSize=16;" vertex="1" parent="FfeQr3sFxZmY81Ny0Sa9-5">
          <mxGeometry y="150" width="180" height="30" as="geometry" />
        </mxCell>
        <mxCell id="FfeQr3sFxZmY81Ny0Sa9-78" value="5" style="shape=partialRectangle;html=1;whiteSpace=wrap;connectable=0;fillColor=none;top=0;left=0;bottom=0;right=0;overflow=hidden;strokeColor=inherit;fontSize=16;" vertex="1" parent="FfeQr3sFxZmY81Ny0Sa9-77">
          <mxGeometry width="40" height="30" as="geometry">
            <mxRectangle width="40" height="30" as="alternateBounds" />
          </mxGeometry>
        </mxCell>
        <mxCell id="FfeQr3sFxZmY81Ny0Sa9-79" value="Value 5" style="shape=partialRectangle;html=1;whiteSpace=wrap;connectable=0;fillColor=none;top=0;left=0;bottom=0;right=0;align=left;spacingLeft=6;overflow=hidden;strokeColor=inherit;fontSize=16;" vertex="1" parent="FfeQr3sFxZmY81Ny0Sa9-77">
          <mxGeometry x="40" width="140" height="30" as="geometry">
            <mxRectangle width="140" height="30" as="alternateBounds" />
          </mxGeometry>
        </mxCell>
        <mxCell id="FfeQr3sFxZmY81Ny0Sa9-74" style="shape=tableRow;horizontal=0;startSize=0;swimlaneHead=0;swimlaneBody=0;top=0;left=0;bottom=0;right=0;collapsible=0;dropTarget=0;fillColor=none;points=[[0,0.5],[1,0.5]];portConstraint=eastwest;strokeColor=inherit;fontSize=16;" vertex="1" parent="FfeQr3sFxZmY81Ny0Sa9-5">
          <mxGeometry y="180" width="180" height="30" as="geometry" />
        </mxCell>
        <mxCell id="FfeQr3sFxZmY81Ny0Sa9-75" value="6" style="shape=partialRectangle;html=1;whiteSpace=wrap;connectable=0;fillColor=none;top=0;left=0;bottom=0;right=0;overflow=hidden;strokeColor=inherit;fontSize=16;" vertex="1" parent="FfeQr3sFxZmY81Ny0Sa9-74">
          <mxGeometry width="40" height="30" as="geometry">
            <mxRectangle width="40" height="30" as="alternateBounds" />
          </mxGeometry>
        </mxCell>
        <mxCell id="FfeQr3sFxZmY81Ny0Sa9-76" value="Value 6" style="shape=partialRectangle;html=1;whiteSpace=wrap;connectable=0;fillColor=none;top=0;left=0;bottom=0;right=0;align=left;spacingLeft=6;overflow=hidden;strokeColor=inherit;fontSize=16;" vertex="1" parent="FfeQr3sFxZmY81Ny0Sa9-74">
          <mxGeometry x="40" width="140" height="30" as="geometry">
            <mxRectangle width="140" height="30" as="alternateBounds" />
          </mxGeometry>
        </mxCell>
        <mxCell id="FfeQr3sFxZmY81Ny0Sa9-71" style="shape=tableRow;horizontal=0;startSize=0;swimlaneHead=0;swimlaneBody=0;top=0;left=0;bottom=0;right=0;collapsible=0;dropTarget=0;fillColor=none;points=[[0,0.5],[1,0.5]];portConstraint=eastwest;strokeColor=inherit;fontSize=16;" vertex="1" parent="FfeQr3sFxZmY81Ny0Sa9-5">
          <mxGeometry y="210" width="180" height="30" as="geometry" />
        </mxCell>
        <mxCell id="FfeQr3sFxZmY81Ny0Sa9-72" value="7" style="shape=partialRectangle;html=1;whiteSpace=wrap;connectable=0;fillColor=none;top=0;left=0;bottom=0;right=0;overflow=hidden;strokeColor=inherit;fontSize=16;" vertex="1" parent="FfeQr3sFxZmY81Ny0Sa9-71">
          <mxGeometry width="40" height="30" as="geometry">
            <mxRectangle width="40" height="30" as="alternateBounds" />
          </mxGeometry>
        </mxCell>
        <mxCell id="FfeQr3sFxZmY81Ny0Sa9-73" value="Value 7" style="shape=partialRectangle;html=1;whiteSpace=wrap;connectable=0;fillColor=none;top=0;left=0;bottom=0;right=0;align=left;spacingLeft=6;overflow=hidden;strokeColor=inherit;fontSize=16;" vertex="1" parent="FfeQr3sFxZmY81Ny0Sa9-71">
          <mxGeometry x="40" width="140" height="30" as="geometry">
            <mxRectangle width="140" height="30" as="alternateBounds" />
          </mxGeometry>
        </mxCell>
        <mxCell id="FfeQr3sFxZmY81Ny0Sa9-68" style="shape=tableRow;horizontal=0;startSize=0;swimlaneHead=0;swimlaneBody=0;top=0;left=0;bottom=0;right=0;collapsible=0;dropTarget=0;fillColor=none;points=[[0,0.5],[1,0.5]];portConstraint=eastwest;strokeColor=inherit;fontSize=16;" vertex="1" parent="FfeQr3sFxZmY81Ny0Sa9-5">
          <mxGeometry y="240" width="180" height="30" as="geometry" />
        </mxCell>
        <mxCell id="FfeQr3sFxZmY81Ny0Sa9-69" value="8" style="shape=partialRectangle;html=1;whiteSpace=wrap;connectable=0;fillColor=none;top=0;left=0;bottom=0;right=0;overflow=hidden;strokeColor=inherit;fontSize=16;" vertex="1" parent="FfeQr3sFxZmY81Ny0Sa9-68">
          <mxGeometry width="40" height="30" as="geometry">
            <mxRectangle width="40" height="30" as="alternateBounds" />
          </mxGeometry>
        </mxCell>
        <mxCell id="FfeQr3sFxZmY81Ny0Sa9-70" value="Value 8" style="shape=partialRectangle;html=1;whiteSpace=wrap;connectable=0;fillColor=none;top=0;left=0;bottom=0;right=0;align=left;spacingLeft=6;overflow=hidden;strokeColor=inherit;fontSize=16;" vertex="1" parent="FfeQr3sFxZmY81Ny0Sa9-68">
          <mxGeometry x="40" width="140" height="30" as="geometry">
            <mxRectangle width="140" height="30" as="alternateBounds" />
          </mxGeometry>
        </mxCell>
        <mxCell id="FfeQr3sFxZmY81Ny0Sa9-89" value="" style="edgeStyle=elbowEdgeStyle;elbow=horizontal;endArrow=halfCircle;html=1;curved=0;rounded=0;endSize=8;startSize=8;endFill=0;startArrow=halfCircle;startFill=0;entryX=0;entryY=0.5;entryDx=0;entryDy=0;" edge="1" parent="FfeQr3sFxZmY81Ny0Sa9-99" target="FfeQr3sFxZmY81Ny0Sa9-6">
          <mxGeometry width="50" height="50" relative="1" as="geometry">
            <mxPoint y="45" as="sourcePoint" />
            <mxPoint x="60" y="50" as="targetPoint" />
          </mxGeometry>
        </mxCell>
        <mxCell id="FfeQr3sFxZmY81Ny0Sa9-90" value="" style="edgeStyle=elbowEdgeStyle;elbow=horizontal;endArrow=halfCircle;html=1;curved=0;rounded=0;endSize=8;startSize=8;endFill=0;startArrow=halfCircle;startFill=0;entryX=0;entryY=0.5;entryDx=0;entryDy=0;" edge="1" parent="FfeQr3sFxZmY81Ny0Sa9-99" target="FfeQr3sFxZmY81Ny0Sa9-9">
          <mxGeometry width="50" height="50" relative="1" as="geometry">
            <mxPoint y="75" as="sourcePoint" />
            <mxPoint x="60" y="80" as="targetPoint" />
          </mxGeometry>
        </mxCell>
        <mxCell id="FfeQr3sFxZmY81Ny0Sa9-91" value="" style="edgeStyle=elbowEdgeStyle;elbow=horizontal;endArrow=halfCircle;html=1;curved=0;rounded=0;endSize=8;startSize=8;endFill=0;startArrow=halfCircle;startFill=0;entryX=0;entryY=0.5;entryDx=0;entryDy=0;" edge="1" parent="FfeQr3sFxZmY81Ny0Sa9-99" target="FfeQr3sFxZmY81Ny0Sa9-12">
          <mxGeometry width="50" height="50" relative="1" as="geometry">
            <mxPoint y="105" as="sourcePoint" />
            <mxPoint x="60" y="110" as="targetPoint" />
          </mxGeometry>
        </mxCell>
        <mxCell id="FfeQr3sFxZmY81Ny0Sa9-92" value="" style="edgeStyle=elbowEdgeStyle;elbow=horizontal;endArrow=halfCircle;html=1;curved=0;rounded=0;endSize=8;startSize=8;endFill=0;startArrow=halfCircle;startFill=0;entryX=0;entryY=0.5;entryDx=0;entryDy=0;" edge="1" parent="FfeQr3sFxZmY81Ny0Sa9-99" target="FfeQr3sFxZmY81Ny0Sa9-80">
          <mxGeometry width="50" height="50" relative="1" as="geometry">
            <mxPoint y="135" as="sourcePoint" />
            <mxPoint x="60" y="140" as="targetPoint" />
          </mxGeometry>
        </mxCell>
        <mxCell id="FfeQr3sFxZmY81Ny0Sa9-93" value="" style="edgeStyle=elbowEdgeStyle;elbow=horizontal;endArrow=halfCircle;html=1;curved=0;rounded=0;endSize=8;startSize=8;endFill=0;startArrow=halfCircle;startFill=0;entryX=0;entryY=0.5;entryDx=0;entryDy=0;" edge="1" parent="FfeQr3sFxZmY81Ny0Sa9-99" target="FfeQr3sFxZmY81Ny0Sa9-77">
          <mxGeometry width="50" height="50" relative="1" as="geometry">
            <mxPoint y="165" as="sourcePoint" />
            <mxPoint x="60" y="170" as="targetPoint" />
          </mxGeometry>
        </mxCell>
        <mxCell id="FfeQr3sFxZmY81Ny0Sa9-94" value="" style="edgeStyle=elbowEdgeStyle;elbow=horizontal;endArrow=halfCircle;html=1;curved=0;rounded=0;endSize=8;startSize=8;endFill=0;startArrow=halfCircle;startFill=0;entryX=0;entryY=0.5;entryDx=0;entryDy=0;" edge="1" parent="FfeQr3sFxZmY81Ny0Sa9-99" target="FfeQr3sFxZmY81Ny0Sa9-74">
          <mxGeometry width="50" height="50" relative="1" as="geometry">
            <mxPoint y="195" as="sourcePoint" />
            <mxPoint x="60" y="200" as="targetPoint" />
          </mxGeometry>
        </mxCell>
        <mxCell id="FfeQr3sFxZmY81Ny0Sa9-95" value="" style="edgeStyle=elbowEdgeStyle;elbow=horizontal;endArrow=halfCircle;html=1;curved=0;rounded=0;endSize=8;startSize=8;endFill=0;startArrow=halfCircle;startFill=0;entryX=0;entryY=0.5;entryDx=0;entryDy=0;" edge="1" parent="FfeQr3sFxZmY81Ny0Sa9-99" target="FfeQr3sFxZmY81Ny0Sa9-71">
          <mxGeometry width="50" height="50" relative="1" as="geometry">
            <mxPoint y="225" as="sourcePoint" />
            <mxPoint x="60" y="230" as="targetPoint" />
          </mxGeometry>
        </mxCell>
        <mxCell id="FfeQr3sFxZmY81Ny0Sa9-96" value="" style="edgeStyle=elbowEdgeStyle;elbow=horizontal;endArrow=halfCircle;html=1;curved=0;rounded=0;endSize=8;startSize=8;endFill=0;startArrow=halfCircle;startFill=0;entryX=0;entryY=0.5;entryDx=0;entryDy=0;" edge="1" parent="FfeQr3sFxZmY81Ny0Sa9-99" target="FfeQr3sFxZmY81Ny0Sa9-68">
          <mxGeometry width="50" height="50" relative="1" as="geometry">
            <mxPoint y="255" as="sourcePoint" />
            <mxPoint x="60" y="260" as="targetPoint" />
          </mxGeometry>
        </mxCell>
      </root>
    </mxGraphModel>
  </diagram>
</mxfile>
